<?xml version="1.0" encoding="UTF-8"?>
<svg xmlns="http://www.w3.org/2000/svg" xmlns:xlink="http://www.w3.org/1999/xlink" width="64px" height="64px" viewBox="0 0 64 64" version="1.1">
<defs>
<linearGradient id="linear0" gradientUnits="userSpaceOnUse" x1="37.763" y1="12" x2="37.763" y2="61" spreadMethod="reflect">
<stop offset="0" style="stop-color:rgb(42.745098%,78.039216%,100%);stop-opacity:1;"/>
<stop offset="1" style="stop-color:rgb(90.196078%,67.058824%,100%);stop-opacity:1;"/>
</linearGradient>
<linearGradient id="linear1" gradientUnits="userSpaceOnUse" x1="29" y1="6" x2="29" y2="55" spreadMethod="reflect">
<stop offset="0" style="stop-color:rgb(10.196078%,42.745098%,100%);stop-opacity:1;"/>
<stop offset="1" style="stop-color:rgb(78.431373%,13.333333%,100%);stop-opacity:1;"/>
</linearGradient>
<linearGradient id="linear2" gradientUnits="userSpaceOnUse" x1="29" y1="6.25" x2="29" y2="55.128" spreadMethod="reflect">
<stop offset="0" style="stop-color:rgb(10.196078%,42.745098%,100%);stop-opacity:1;"/>
<stop offset="1" style="stop-color:rgb(78.431373%,13.333333%,100%);stop-opacity:1;"/>
</linearGradient>
<linearGradient id="linear3" gradientUnits="userSpaceOnUse" x1="19" y1="6.25" x2="19" y2="55.128" spreadMethod="reflect">
<stop offset="0" style="stop-color:rgb(10.196078%,42.745098%,100%);stop-opacity:1;"/>
<stop offset="1" style="stop-color:rgb(78.431373%,13.333333%,100%);stop-opacity:1;"/>
</linearGradient>
<linearGradient id="linear4" gradientUnits="userSpaceOnUse" x1="18" y1="6.25" x2="18" y2="55.128" spreadMethod="reflect">
<stop offset="0" style="stop-color:rgb(10.196078%,42.745098%,100%);stop-opacity:1;"/>
<stop offset="1" style="stop-color:rgb(78.431373%,13.333333%,100%);stop-opacity:1;"/>
</linearGradient>
<linearGradient id="linear5" gradientUnits="userSpaceOnUse" x1="28" y1="6.25" x2="28" y2="55.128" spreadMethod="reflect">
<stop offset="0" style="stop-color:rgb(10.196078%,42.745098%,100%);stop-opacity:1;"/>
<stop offset="1" style="stop-color:rgb(78.431373%,13.333333%,100%);stop-opacity:1;"/>
</linearGradient>
<linearGradient id="linear6" gradientUnits="userSpaceOnUse" x1="39" y1="5.25" x2="39" y2="54.128" spreadMethod="reflect">
<stop offset="0" style="stop-color:rgb(10.196078%,42.745098%,100%);stop-opacity:1;"/>
<stop offset="1" style="stop-color:rgb(78.431373%,13.333333%,100%);stop-opacity:1;"/>
</linearGradient>
<linearGradient id="linear7" gradientUnits="userSpaceOnUse" x1="38" y1="5.25" x2="38" y2="54.128" spreadMethod="reflect">
<stop offset="0" style="stop-color:rgb(10.196078%,42.745098%,100%);stop-opacity:1;"/>
<stop offset="1" style="stop-color:rgb(78.431373%,13.333333%,100%);stop-opacity:1;"/>
</linearGradient>
<linearGradient id="linear8" gradientUnits="userSpaceOnUse" x1="27" y1="6.25" x2="27" y2="55.128" spreadMethod="reflect">
<stop offset="0" style="stop-color:rgb(10.196078%,42.745098%,100%);stop-opacity:1;"/>
<stop offset="1" style="stop-color:rgb(78.431373%,13.333333%,100%);stop-opacity:1;"/>
</linearGradient>
</defs>
<g id="surface262401">
<path style=" stroke:none;fill-rule:nonzero;fill:url(#linear0);" d="M 61 19 L 61 44 C 61 47.089844 59.011719 49.75 56.148438 50.660156 L 57.980469 59.800781 C 58.070312 60.230469 57.871094 60.660156 57.488281 60.871094 C 57.339844 60.960938 57.171875 61 57 61 C 56.761719 61 56.519531 60.910156 56.328125 60.738281 L 45.609375 51 L 21 51 C 18.628906 51 16.46875 49.820312 15.191406 47.910156 C 14.929688 47.53125 14.710938 47.121094 14.53125 46.691406 C 14.398438 46.359375 18 44 18 44 C 18.101562 43.960938 48 44 48 44 C 50.761719 44 54 40.761719 54 38 C 54 38 53.761719 12 54 12 C 54.320312 12 54.628906 12.019531 54.929688 12.070312 C 58.351562 12.519531 61 15.460938 61 19 Z M 61 19 "/>
<path style=" stroke:none;fill-rule:nonzero;fill:url(#linear1);" d="M 7 55 C 6.832031 55 6.660156 54.957031 6.507812 54.871094 C 6.132812 54.65625 5.933594 54.226562 6.019531 53.804688 L 7.847656 44.664062 C 4.984375 43.75 3 41.09375 3 38 L 3 13 C 3 9.140625 6.140625 6 10 6 L 48 6 C 51.859375 6 55 9.140625 55 13 L 55 38 C 55 41.859375 51.859375 45 48 45 L 18.386719 45 L 7.671875 54.738281 C 7.484375 54.910156 7.242188 55 7 55 Z M 10 8 C 7.242188 8 5 10.242188 5 13 L 5 38 C 5 40.460938 6.757812 42.53125 9.179688 42.933594 C 9.445312 42.976562 9.683594 43.128906 9.835938 43.351562 C 9.992188 43.570312 10.050781 43.847656 9.996094 44.113281 L 8.574219 51.214844 L 17.328125 43.261719 C 17.511719 43.09375 17.75 43 18 43 L 48 43 C 50.757812 43 53 40.757812 53 38 L 53 13 C 53 10.242188 50.757812 8 48 8 Z M 10 8 "/>
<path style=" stroke:none;fill-rule:nonzero;fill:url(#linear2);" d="M 30.5 21 C 31.882812 21 33 19.882812 33 18.5 C 33 17.117188 31.882812 16 30.5 16 L 26 16 L 25 21 Z M 30.5 21 "/>
<path style=" stroke:none;fill-rule:nonzero;fill:url(#linear3);" d="M 20.5 21 C 21.882812 21 23 19.882812 23 18.5 C 23 17.117188 21.882812 16 20.5 16 L 16 16 L 15 21 Z M 20.5 21 "/>
<path style=" stroke:none;fill-rule:nonzero;fill:url(#linear4);" d="M 19.5 28 C 20.882812 28 22 26.882812 22 25.5 C 22 24.117188 20.882812 23 19.5 23 L 15 23 L 14 28 Z M 19.5 28 "/>
<path style=" stroke:none;fill-rule:nonzero;fill:url(#linear5);" d="M 29.5 28 C 30.882812 28 32 26.882812 32 25.5 C 32 24.117188 30.882812 23 29.5 23 L 25 23 L 24 28 Z M 29.5 28 "/>
<path style=" stroke:none;fill-rule:nonzero;fill:url(#linear6);" d="M 40.5 25 C 41.882812 25 43 23.882812 43 22.5 C 43 21.117188 41.882812 20 40.5 20 L 36 20 L 35 25 Z M 40.5 25 "/>
<path style=" stroke:none;fill-rule:nonzero;fill:url(#linear7);" d="M 39.5 32 C 40.882812 32 42 30.882812 42 29.5 C 42 28.117188 40.882812 27 39.5 27 L 35 27 L 34 32 Z M 39.5 32 "/>
<path style=" stroke:none;fill-rule:nonzero;fill:url(#linear8);" d="M 28.5 35 C 29.882812 35 31 33.882812 31 32.5 C 31 31.117188 29.882812 30 28.5 30 L 24 30 L 23 35 Z M 28.5 35 "/>
</g>
</svg>
