<?xml version="1.0" encoding="UTF-8"?>
<svg xmlns="http://www.w3.org/2000/svg" xmlns:xlink="http://www.w3.org/1999/xlink" width="64px" height="64px" viewBox="0 0 64 64" version="1.1">
<defs>
<linearGradient id="linear0" gradientUnits="userSpaceOnUse" x1="32" y1="9" x2="32" y2="55" spreadMethod="reflect">
<stop offset="0" style="stop-color:rgb(10.196078%,42.745098%,100%);stop-opacity:1;"/>
<stop offset="1" style="stop-color:rgb(78.431373%,13.333333%,100%);stop-opacity:1;"/>
</linearGradient>
<linearGradient id="linear1" gradientUnits="userSpaceOnUse" x1="32" y1="13.458" x2="32" y2="51.829" spreadMethod="reflect">
<stop offset="0" style="stop-color:rgb(42.745098%,78.039216%,100%);stop-opacity:1;"/>
<stop offset="1" style="stop-color:rgb(90.196078%,67.058824%,100%);stop-opacity:1;"/>
</linearGradient>
<linearGradient id="linear2" gradientUnits="userSpaceOnUse" x1="32" y1="13.437" x2="32" y2="51.853" spreadMethod="reflect">
<stop offset="0" style="stop-color:rgb(42.745098%,78.039216%,100%);stop-opacity:1;"/>
<stop offset="1" style="stop-color:rgb(90.196078%,67.058824%,100%);stop-opacity:1;"/>
</linearGradient>
</defs>
<g id="surface263377">
<path style=" stroke:none;fill-rule:nonzero;fill:url(#linear0);" d="M 52.570312 36.050781 C 52.5 35.621094 52.300781 35.21875 52 34.910156 C 51.78125 34.699219 51.511719 34.53125 51.21875 34.429688 C 50.480469 34.179688 49.691406 34.371094 49.148438 34.910156 L 46.308594 37.761719 L 40.550781 32 L 46.308594 26.238281 L 49.148438 29.089844 C 49.691406 29.628906 50.480469 29.820312 51.21875 29.570312 C 51.941406 29.328125 52.460938 28.710938 52.570312 27.960938 L 54.96875 12.460938 C 55.101562 11.5 54.800781 10.570312 54.121094 9.890625 C 53.429688 9.199219 52.5 8.898438 51.539062 9.03125 L 36.070312 11.441406 C 35.640625 11.5 35.238281 11.699219 34.941406 12.011719 C 34.71875 12.21875 34.550781 12.488281 34.449219 12.789062 C 34.199219 13.519531 34.398438 14.308594 34.941406 14.851562 L 37.78125 17.699219 L 32 23.488281 L 26.21875 17.699219 L 29.058594 14.851562 C 29.601562 14.308594 29.800781 13.519531 29.550781 12.789062 C 29.300781 12.058594 28.691406 11.539062 27.941406 11.441406 L 12.460938 9.03125 C 11.5 8.898438 10.570312 9.199219 9.878906 9.890625 C 9.199219 10.570312 8.898438 11.5 9.03125 12.460938 L 11.429688 27.949219 C 11.5 28.378906 11.699219 28.78125 12 29.089844 C 12.21875 29.300781 12.488281 29.46875 12.78125 29.570312 C 13.519531 29.820312 14.308594 29.628906 14.851562 29.089844 L 17.691406 26.238281 L 23.449219 32 L 17.691406 37.761719 L 14.851562 34.910156 C 14.308594 34.371094 13.519531 34.179688 12.78125 34.429688 C 12.058594 34.671875 11.539062 35.289062 11.429688 36.039062 L 9.03125 51.539062 C 8.898438 52.5 9.199219 53.429688 9.878906 54.109375 C 10.570312 54.800781 11.5 55.101562 12.460938 54.96875 L 27.929688 52.558594 C 28.359375 52.5 28.761719 52.300781 29.058594 51.988281 C 29.28125 51.78125 29.449219 51.511719 29.550781 51.210938 C 29.800781 50.480469 29.601562 49.691406 29.058594 49.148438 L 26.21875 46.300781 L 32 40.511719 L 37.78125 46.300781 L 34.941406 49.148438 C 34.398438 49.691406 34.199219 50.480469 34.449219 51.210938 C 34.699219 51.941406 35.308594 52.460938 36.058594 52.558594 L 51.539062 54.96875 C 52.5 55.101562 53.429688 54.800781 54.121094 54.109375 C 54.800781 53.429688 55.101562 52.5 54.96875 51.539062 Z M 52.691406 52.691406 C 52.46875 52.921875 52.148438 53.019531 51.839844 52.980469 L 36.359375 50.570312 L 40.621094 46.300781 L 33.421875 39.089844 L 32 37.671875 L 30.578125 39.089844 L 23.378906 46.300781 L 27.628906 50.570312 L 12.160156 52.980469 C 11.851562 53.019531 11.53125 52.921875 11.308594 52.691406 C 11.078125 52.460938 10.980469 52.148438 11.019531 51.839844 L 13.421875 36.339844 L 17.691406 40.609375 L 24.871094 33.421875 L 26.289062 32 L 24.871094 30.578125 L 17.691406 23.390625 L 13.421875 27.648438 L 11.019531 12.160156 C 10.980469 11.851562 11.078125 11.539062 11.308594 11.308594 C 11.53125 11.078125 11.851562 10.980469 12.160156 11.019531 L 27.640625 13.429688 L 23.378906 17.699219 L 30.578125 24.910156 L 32 26.328125 L 33.421875 24.910156 L 40.621094 17.699219 L 36.371094 13.429688 L 51.839844 11.019531 C 52.148438 10.980469 52.46875 11.078125 52.691406 11.308594 C 52.921875 11.539062 53.019531 11.851562 52.980469 12.160156 L 50.578125 27.660156 L 46.308594 23.390625 L 39.128906 30.578125 L 37.710938 32 L 39.128906 33.421875 L 46.308594 40.609375 L 50.578125 36.351562 L 52.980469 51.839844 C 53.019531 52.148438 52.921875 52.460938 52.691406 52.691406 Z M 52.691406 52.691406 "/>
<path style=" stroke:none;fill-rule:nonzero;fill:url(#linear1);" d="M 50.144531 48.980469 L 49.082031 42.953125 C 48.964844 42.132812 47.960938 41.800781 47.375 42.386719 L 45.597656 44.164062 L 39.199219 37.761719 L 19.824219 18.410156 L 21.601562 16.632812 C 22.1875 16.046875 21.851562 15.042969 21.03125 14.925781 L 14.992188 13.882812 C 14.328125 13.785156 13.757812 14.355469 13.855469 15.019531 L 14.917969 21.046875 C 15.035156 21.867188 16.039062 22.203125 16.625 21.613281 L 18.402344 19.835938 L 37.777344 39.183594 L 44.175781 45.589844 L 42.398438 47.367188 C 41.8125 47.953125 42.148438 48.957031 42.96875 49.074219 L 49.007812 50.117188 C 49.671875 50.214844 50.242188 49.644531 50.144531 48.980469 Z M 50.144531 48.980469 "/>
<path style=" stroke:none;fill-rule:nonzero;fill:url(#linear2);" d="M 48.988281 13.859375 L 42.96875 14.925781 C 42.148438 15.042969 41.816406 16.046875 42.398438 16.632812 L 44.175781 18.410156 L 24.800781 37.757812 L 18.402344 44.164062 L 16.625 42.386719 C 16.039062 41.800781 15.035156 42.132812 14.917969 42.953125 L 13.875 49 C 13.78125 49.664062 14.347656 50.234375 15.011719 50.140625 L 21.03125 49.074219 C 21.851562 48.957031 22.183594 47.953125 21.601562 47.367188 L 19.824219 45.585938 L 26.222656 39.183594 L 45.597656 19.835938 L 47.375 21.613281 C 47.960938 22.199219 48.964844 21.867188 49.082031 21.046875 L 50.125 14.996094 C 50.21875 14.335938 49.652344 13.765625 48.988281 13.859375 Z M 48.988281 13.859375 "/>
</g>
</svg>
