<?xml version="1.0" encoding="UTF-8"?>
<svg xmlns="http://www.w3.org/2000/svg" xmlns:xlink="http://www.w3.org/1999/xlink" width="64px" height="64px" viewBox="0 0 64 64" version="1.1">
<defs>
<linearGradient id="linear0" gradientUnits="userSpaceOnUse" x1="32" y1="5.5" x2="32" y2="59.32" spreadMethod="reflect">
<stop offset="0" style="stop-color:rgb(10.196078%,42.745098%,100%);stop-opacity:1;"/>
<stop offset="1" style="stop-color:rgb(78.431373%,13.333333%,100%);stop-opacity:1;"/>
</linearGradient>
<linearGradient id="linear1" gradientUnits="userSpaceOnUse" x1="29.197" y1="17.5" x2="29.197" y2="47.267" spreadMethod="reflect">
<stop offset="0" style="stop-color:rgb(42.745098%,78.039216%,100%);stop-opacity:1;"/>
<stop offset="1" style="stop-color:rgb(90.196078%,67.058824%,100%);stop-opacity:1;"/>
</linearGradient>
</defs>
<g id="surface90072">
<path style=" stroke:none;fill-rule:nonzero;fill:url(#linear0);" d="M 13.992188 58.003906 C 13.507812 58.003906 13.019531 57.878906 12.574219 57.632812 C 11.601562 57.101562 11 56.070312 11 54.949219 L 11 9.050781 C 11 7.929688 11.601562 6.898438 12.574219 6.367188 C 13.527344 5.839844 14.652344 5.878906 15.574219 6.464844 L 51.59375 29.414062 C 52.476562 29.976562 53 30.941406 53 32 C 53 33.058594 52.476562 34.023438 51.59375 34.585938 L 15.574219 57.535156 C 15.085938 57.847656 14.539062 58.003906 13.992188 58.003906 Z M 13.996094 8 C 13.785156 8 13.621094 8.074219 13.535156 8.121094 C 13.199219 8.304688 13 8.652344 13 9.050781 L 13 54.949219 C 13 55.347656 13.199219 55.695312 13.535156 55.878906 C 13.683594 55.960938 14.070312 56.117188 14.5 55.847656 L 50.519531 32.898438 C 50.953125 32.621094 51 32.179688 51 32 C 51 31.820312 50.953125 31.378906 50.519531 31.105469 L 14.5 8.152344 C 14.320312 8.039062 14.144531 8 13.996094 8 Z M 13.996094 8 "/>
<path style=" stroke:none;fill-rule:nonzero;fill:url(#linear1);" d="M 18 20.273438 L 18 43.730469 C 18 45.332031 19.714844 46.3125 21.039062 45.46875 L 39.453125 33.742188 C 40.707031 32.941406 40.710938 31.0625 39.453125 30.261719 L 21.039062 18.53125 C 19.714844 17.6875 18 18.667969 18 20.273438 Z M 18 20.273438 "/>
</g>
</svg>
