<?xml version="1.0" encoding="UTF-8"?>
<svg xmlns="http://www.w3.org/2000/svg" xmlns:xlink="http://www.w3.org/1999/xlink" width="64px" height="64px" viewBox="0 0 64 64" version="1.1">
<defs>
<linearGradient id="linear0" gradientUnits="userSpaceOnUse" x1="32.337" y1="16.5" x2="31.642" y2="46.397" spreadMethod="reflect">
<stop offset="0" style="stop-color:rgb(42.745098%,78.039216%,100%);stop-opacity:1;"/>
<stop offset="1" style="stop-color:rgb(90.196078%,67.058824%,100%);stop-opacity:1;"/>
</linearGradient>
<linearGradient id="linear1" gradientUnits="userSpaceOnUse" x1="32" y1="3.75" x2="32" y2="59.5" spreadMethod="reflect">
<stop offset="0" style="stop-color:rgb(10.196078%,42.745098%,100%);stop-opacity:1;"/>
<stop offset="1" style="stop-color:rgb(78.431373%,13.333333%,100%);stop-opacity:1;"/>
</linearGradient>
<linearGradient id="linear2" gradientUnits="userSpaceOnUse" x1="32" y1="13.917" x2="32" y2="48.258" spreadMethod="reflect">
<stop offset="0" style="stop-color:rgb(42.745098%,78.039216%,100%);stop-opacity:1;"/>
<stop offset="1" style="stop-color:rgb(90.196078%,67.058824%,100%);stop-opacity:1;"/>
</linearGradient>
<linearGradient id="linear3" gradientUnits="userSpaceOnUse" x1="32" y1="19.167" x2="32" y2="43.62" spreadMethod="reflect">
<stop offset="0" style="stop-color:rgb(10.196078%,42.745098%,100%);stop-opacity:1;"/>
<stop offset="1" style="stop-color:rgb(78.431373%,13.333333%,100%);stop-opacity:1;"/>
</linearGradient>
</defs>
<g id="surface206109">
<path style=" stroke:none;fill-rule:evenodd;fill:url(#linear0);" d="M 32 26 C 29.238281 26 27 28.238281 27 31 C 27 33.761719 29.238281 36 32 36 C 34.761719 36 37 33.761719 37 31 C 37 28.238281 34.761719 26 32 26 Z M 32 26 "/>
<path style=" stroke:none;fill-rule:nonzero;fill:url(#linear1);" d="M 31.941406 58 C 31.445312 58 30.941406 57.988281 30.4375 57.960938 C 28.78125 57.855469 27.453125 56.648438 27.191406 55.027344 C 27.03125 54.042969 26.839844 52.855469 26.683594 51.925781 C 26.589844 51.355469 26.195312 50.902344 25.65625 50.730469 C 24.566406 50.378906 23.519531 49.941406 22.535156 49.429688 C 22.03125 49.164062 21.429688 49.210938 20.964844 49.542969 C 20.195312 50.097656 19.214844 50.804688 18.398438 51.386719 C 17.074219 52.34375 15.285156 52.257812 14.054688 51.175781 C 13.289062 50.492188 12.542969 49.75 11.828125 48.960938 C 10.734375 47.714844 10.648438 45.921875 11.609375 44.589844 C 12.191406 43.78125 12.898438 42.808594 13.441406 42.035156 C 13.78125 41.570312 13.824219 40.96875 13.558594 40.464844 C 13.035156 39.445312 12.605469 38.394531 12.273438 37.339844 C 12.105469 36.796875 11.648438 36.402344 11.082031 36.308594 L 10.871094 36.277344 C 9.972656 36.128906 8.882812 35.953125 7.964844 35.796875 C 6.355469 35.539062 5.148438 34.210938 5.046875 32.574219 C 4.984375 31.554688 4.984375 30.5 5.035156 29.4375 C 5.144531 27.78125 6.351562 26.453125 7.972656 26.191406 C 8.957031 26.03125 10.144531 25.839844 11.074219 25.679688 C 11.644531 25.589844 12.097656 25.195312 12.269531 24.652344 C 12.617188 23.5625 13.054688 22.515625 13.566406 21.535156 C 13.832031 21.03125 13.789062 20.425781 13.453125 19.964844 C 12.898438 19.195312 12.191406 18.214844 11.613281 17.398438 C 10.65625 16.074219 10.742188 14.285156 11.824219 13.054688 C 12.503906 12.289062 13.246094 11.539062 14.039062 10.828125 C 15.28125 9.734375 17.074219 9.644531 18.410156 10.609375 C 19.21875 11.191406 20.191406 11.898438 20.960938 12.441406 C 21.429688 12.777344 22.027344 12.824219 22.53125 12.558594 C 23.554688 12.035156 24.601562 11.605469 25.65625 11.273438 C 26.203125 11.101562 26.597656 10.644531 26.6875 10.082031 L 26.722656 9.871094 C 26.867188 8.972656 27.046875 7.878906 27.199219 6.964844 C 27.460938 5.351562 28.785156 4.148438 30.421875 4.042969 C 31.445312 3.984375 32.5 3.980469 33.5625 4.035156 C 35.21875 4.140625 36.546875 5.347656 36.808594 6.972656 C 36.96875 7.953125 37.160156 9.140625 37.316406 10.070312 C 37.410156 10.640625 37.804688 11.097656 38.34375 11.265625 C 39.433594 11.617188 40.480469 12.054688 41.464844 12.566406 C 41.96875 12.832031 42.574219 12.789062 43.035156 12.453125 C 43.804688 11.898438 44.785156 11.191406 45.601562 10.609375 C 46.925781 9.652344 48.714844 9.738281 49.945312 10.824219 C 50.710938 11.503906 51.457031 12.246094 52.171875 13.035156 C 53.265625 14.28125 53.351562 16.074219 52.390625 17.40625 C 51.808594 18.214844 51.101562 19.191406 50.558594 19.960938 C 50.21875 20.429688 50.175781 21.027344 50.441406 21.53125 C 50.964844 22.550781 51.394531 23.601562 51.726562 24.65625 C 51.894531 25.199219 52.351562 25.597656 52.917969 25.6875 L 53.128906 25.722656 C 54.027344 25.867188 55.117188 26.042969 56.035156 26.199219 C 57.644531 26.460938 58.851562 27.785156 58.953125 29.421875 C 59.015625 30.441406 59.015625 31.496094 58.964844 32.5625 C 58.855469 34.214844 57.648438 35.542969 56.027344 35.804688 C 55.042969 35.964844 53.855469 36.15625 52.925781 36.316406 C 52.355469 36.40625 51.902344 36.800781 51.730469 37.34375 C 51.382812 38.433594 50.945312 39.480469 50.433594 40.460938 C 50.167969 40.96875 50.210938 41.570312 50.546875 42.03125 C 51.101562 42.800781 51.808594 43.78125 52.386719 44.597656 C 53.34375 45.921875 53.257812 47.710938 52.175781 48.945312 C 51.496094 49.707031 50.753906 50.457031 49.960938 51.171875 C 48.714844 52.261719 46.925781 52.351562 45.589844 51.386719 C 44.78125 50.804688 43.808594 50.101562 43.039062 49.554688 C 42.570312 49.21875 41.972656 49.175781 41.46875 49.4375 C 40.445312 49.960938 39.398438 50.394531 38.34375 50.722656 C 37.796875 50.894531 37.402344 51.351562 37.3125 51.914062 L 37.277344 52.125 C 37.132812 53.027344 36.953125 54.117188 36.800781 55.03125 C 36.539062 56.644531 35.214844 57.847656 33.578125 57.953125 C 33.039062 57.984375 32.496094 58 31.941406 58 Z M 21.839844 47.257812 C 22.394531 47.257812 22.949219 47.390625 23.464844 47.660156 C 24.34375 48.117188 25.285156 48.511719 26.261719 48.824219 C 27.523438 49.222656 28.445312 50.285156 28.65625 51.597656 C 28.816406 52.523438 29.007812 53.71875 29.167969 54.707031 C 29.28125 55.402344 29.851562 55.921875 30.550781 55.964844 C 31.53125 56.015625 32.511719 56.011719 33.453125 55.957031 C 34.148438 55.914062 34.714844 55.398438 34.828125 54.707031 C 34.980469 53.789062 35.15625 52.703125 35.304688 51.808594 L 35.335938 51.597656 C 35.550781 50.28125 36.472656 49.214844 37.746094 48.816406 C 38.691406 48.519531 39.636719 48.132812 40.546875 47.664062 C 41.71875 47.050781 43.121094 47.152344 44.203125 47.929688 C 44.96875 48.472656 45.949219 49.179688 46.761719 49.769531 C 47.335938 50.179688 48.101562 50.144531 48.632812 49.679688 C 49.359375 49.019531 50.050781 48.324219 50.679688 47.621094 C 51.136719 47.097656 51.175781 46.332031 50.761719 45.765625 C 50.179688 44.949219 49.476562 43.972656 48.925781 43.207031 C 48.144531 42.125 48.042969 40.71875 48.660156 39.535156 C 49.121094 38.65625 49.515625 37.714844 49.828125 36.738281 C 50.222656 35.476562 51.285156 34.558594 52.597656 34.34375 C 53.523438 34.1875 54.71875 33.992188 55.710938 33.835938 C 56.402344 33.722656 56.921875 33.152344 56.96875 32.449219 C 57.015625 31.472656 57.015625 30.492188 56.960938 29.546875 C 56.914062 28.855469 56.398438 28.285156 55.707031 28.175781 C 54.789062 28.019531 53.703125 27.84375 52.808594 27.699219 L 52.597656 27.664062 C 51.28125 27.453125 50.21875 26.53125 49.816406 25.257812 C 49.523438 24.308594 49.132812 23.367188 48.664062 22.453125 C 48.054688 21.28125 48.152344 19.878906 48.933594 18.800781 C 49.476562 18.03125 50.183594 17.050781 50.769531 16.238281 C 51.183594 15.667969 51.144531 14.898438 50.679688 14.371094 C 50.023438 13.644531 49.328125 12.953125 48.621094 12.324219 C 48.101562 11.867188 47.335938 11.828125 46.769531 12.238281 C 45.949219 12.820312 44.972656 13.523438 44.207031 14.078125 C 43.125 14.855469 41.71875 14.957031 40.539062 14.339844 C 39.660156 13.882812 38.71875 13.488281 37.742188 13.175781 C 36.480469 12.777344 35.558594 11.714844 35.347656 10.402344 C 35.1875 9.476562 34.996094 8.28125 34.835938 7.292969 C 34.722656 6.597656 34.152344 6.078125 33.453125 6.035156 C 32.472656 5.984375 31.492188 5.988281 30.550781 6.042969 C 29.855469 6.085938 29.289062 6.601562 29.175781 7.292969 C 29.023438 8.210938 28.847656 9.296875 28.699219 10.191406 L 28.667969 10.402344 C 28.453125 11.71875 27.53125 12.785156 26.257812 13.183594 C 25.3125 13.480469 24.367188 13.867188 23.457031 14.335938 C 22.285156 14.949219 20.878906 14.847656 19.800781 14.070312 C 19.035156 13.527344 18.054688 12.820312 17.242188 12.230469 C 16.667969 11.820312 15.902344 11.855469 15.371094 12.320312 C 14.644531 12.980469 13.953125 13.675781 13.324219 14.378906 C 12.867188 14.902344 12.828125 15.667969 13.242188 16.234375 C 13.824219 17.050781 14.527344 18.027344 15.078125 18.792969 C 15.859375 19.875 15.960938 21.28125 15.34375 22.464844 C 14.882812 23.34375 14.488281 24.285156 14.175781 25.261719 C 13.78125 26.523438 12.71875 27.441406 11.40625 27.65625 C 10.480469 27.8125 9.285156 28.007812 8.296875 28.164062 C 7.601562 28.277344 7.082031 28.847656 7.035156 29.550781 C 6.988281 30.527344 6.988281 31.507812 7.046875 32.453125 C 7.089844 33.144531 7.605469 33.714844 8.296875 33.824219 C 9.214844 33.980469 10.300781 34.15625 11.195312 34.300781 L 11.40625 34.335938 C 12.722656 34.546875 13.785156 35.46875 14.1875 36.742188 C 14.480469 37.691406 14.871094 38.632812 15.339844 39.546875 C 15.949219 40.71875 15.851562 42.121094 15.070312 43.199219 C 14.527344 43.96875 13.820312 44.949219 13.234375 45.761719 C 12.820312 46.332031 12.859375 47.101562 13.324219 47.628906 C 13.980469 48.355469 14.675781 49.046875 15.382812 49.675781 C 15.902344 50.132812 16.667969 50.171875 17.234375 49.761719 C 18.054688 49.179688 19.03125 48.476562 19.796875 47.921875 C 20.40625 47.480469 21.121094 47.257812 21.839844 47.257812 Z M 21.839844 47.257812 "/>
<path style=" stroke:none;fill-rule:nonzero;fill:url(#linear2);" d="M 32 48 C 22.625 48 15 40.375 15 31 C 15 21.625 22.625 14 32 14 C 41.375 14 49 21.625 49 31 C 49 40.375 41.375 48 32 48 Z M 32 16 C 23.730469 16 17 22.730469 17 31 C 17 39.269531 23.730469 46 32 46 C 40.269531 46 47 39.269531 47 31 C 47 22.730469 40.269531 16 32 16 Z M 32 16 "/>
<path style=" stroke:none;fill-rule:nonzero;fill:url(#linear3);" d="M 32 43 C 25.382812 43 20 37.617188 20 31 C 20 24.382812 25.382812 19 32 19 C 38.617188 19 44 24.382812 44 31 C 44 37.617188 38.617188 43 32 43 Z M 32 21 C 26.484375 21 22 25.484375 22 31 C 22 36.515625 26.484375 41 32 41 C 37.515625 41 42 36.515625 42 31 C 42 25.484375 37.515625 21 32 21 Z M 32 21 "/>
</g>
</svg>
